<svg width="32" height="32" viewBox="0 0 32 32" fill="none" xmlns="http://www.w3.org/2000/svg">
<g clip-path="url(#clip0_34_2)">
<path d="M7.67188 13.4412L1.075 23.1844C0.8825 23.4969 1.08125 23.9031 1.44563 23.9431L14.4619 25.3225L7.67188 13.4412V13.4412ZM1.46313 19.7144L6.16875 12.0675L1.37875 9.19375C1.21188 9.09375 1 9.21375 1 9.40812V19.5837C1 19.8356 1.33063 19.9294 1.46313 19.7144ZM2.14063 26.475L14.2906 31.9538C14.6219 32.1069 15 31.8644 15 31.5V27.3956L2.27813 26.0019C2 25.9706 1.88875 26.3513 2.14063 26.475V26.475ZM7.21688 10.3638L12.2125 1.43C12.4838 0.98875 11.9881 0.476875 11.5388 0.73375L2.11313 6.89687C1.95875 6.99812 1.96375 7.22562 2.12125 7.32062L7.21688 10.3638V10.3638ZM16 11H22.8256L16.8519 0.47625C16.6563 0.15875 16.3281 0 16 0C15.6719 0 15.3438 0.15875 15.1481 0.47625L9.17438 11H16ZM30.6213 9.19375L25.8313 12.0681L30.5369 19.715C30.6688 19.93 31 19.8362 31 19.5837V9.40812C31 9.21375 30.7881 9.09375 30.6213 9.19375V9.19375ZM24.7831 10.3638L29.8788 7.32C30.0369 7.225 30.0413 6.9975 29.8869 6.89625L20.4613 0.73375C20.0119 0.476875 19.5163 0.98875 19.7875 1.43L24.7831 10.3638ZM29.7219 26.0019L17 27.395V31.4994C17 31.8644 17.3781 32.1063 17.7094 31.9531L29.8594 26.4744C30.1113 26.3512 30 25.9706 29.7219 26.0019V26.0019ZM24.3281 13.4412L17.5388 25.3225L30.555 23.9431C30.9194 23.9025 31.1181 23.4969 30.9256 23.1844L24.3281 13.4412V13.4412ZM16 13H9.72313L16 23.9844L22.2769 13H16Z" fill="#65C9FF"/>
</g>
<defs>
<clipPath id="clip0_34_2">
<rect width="32" height="32" fill="white"/>
</clipPath>
</defs>
</svg>
