<svg width="32" height="32" viewBox="0 0 32 32" fill="none" xmlns="http://www.w3.org/2000/svg">
<path d="M23.9999 6C22.2999 6 20.9999 7.3 20.9999 9V11.2C20.6999 11.1 20.3999 11 19.9999 11C19.1999 11 18.4999 11.3 17.9999 11.8C17.4999 11.3 16.7999 11 15.9999 11C15.5999 11 15.2999 11.1 14.9999 11.2V7C14.9999 5.3 13.6999 4 11.9999 4C10.2999 4 8.99994 5.3 8.99994 7V16V17.9C8.49994 17.4 7.79994 17 6.99994 17C6.09994 17 5.29994 17.3 4.69994 17.9C3.59994 19 3.49994 20.9 4.59994 22.1L7.79994 25.7C9.59994 27.8 12.1999 29 14.9999 29H18.6999C23.2999 29 27.0999 25.2 27.0999 20.6V20V16V9C26.9999 7.3 25.6999 6 23.9999 6ZM24.9999 16V20V20.6C24.9999 24.1 22.0999 27 18.5999 27H14.8999C12.6999 27 10.6999 26.1 9.19994 24.4L5.99994 20.8C5.59994 20.4 5.59994 19.7 6.09994 19.3C6.29994 19.1 6.59994 19 6.89994 19C7.19994 19 7.49994 19.2 7.69994 19.4L9.19994 21.2C9.49994 21.5 9.89994 21.6 10.2999 21.5C10.6999 21.4 10.9999 21 10.9999 20.6V18V16V7C10.9999 6.4 11.3999 6 11.9999 6C12.5999 6 12.9999 6.4 12.9999 7V14V15C12.9999 15.6 13.3999 16 13.9999 16C14.5999 16 14.9999 15.6 14.9999 15V14C14.9999 13.4 15.3999 13 15.9999 13C16.5999 13 16.9999 13.4 16.9999 14V15C16.9999 15.6 17.3999 16 17.9999 16C18.5999 16 18.9999 15.6 18.9999 15V14C18.9999 13.4 19.3999 13 19.9999 13C20.5999 13 20.9999 13.4 20.9999 14V15C20.9999 15.6 21.3999 16 21.9999 16C22.5999 16 22.9999 15.6 22.9999 15V14V9C22.9999 8.4 23.3999 8 23.9999 8C24.5999 8 24.9999 8.4 24.9999 9V16Z" fill="#65C9FF"/>
</svg>
