<svg width="32" height="32" viewBox="0 0 32 32" fill="none" xmlns="http://www.w3.org/2000/svg">
<path d="M29.334 16.6665V11.3335H26.668V8.6665H24V7.3335H26.668V3.3335H22.668V5.9995H20V8.6665H12V5.9995H9.334V3.3335H5.334V7.3335H8V8.6665H5.334V11.3335H2.668V16.6665H0V25.9995H4V20.6665H5.334V25.9995H8V28.6665H14.668V24.6665H9.334V23.3335H22.668V24.6665H17.334V28.6665H24V25.9995H26.668V20.6665H28V25.9995H32V16.6665H29.334ZM12 15.3335H8V11.3335H12V15.3335ZM24 15.3335H20V11.3335H24V15.3335Z" fill="#65C9FF"/>
</svg>
