<svg width="32" height="32" viewBox="0 0 32 32" fill="none" xmlns="http://www.w3.org/2000/svg">
<path d="M6.3697 11.7381L5.69087 10.5013C4.97578 10.894 4.27679 11.3344 3.61279 11.8106L4.4353 12.9568C5.05332 12.5136 5.70399 12.1035 6.3697 11.7381Z" fill="#65C9FF"/>
<path d="M10.6039 10.0379L10.2396 8.67477C9.45146 8.88544 8.66757 9.14667 7.90991 9.45099L8.43567 10.7602C9.14128 10.4768 9.87045 10.2339 10.6039 10.0379Z" fill="#65C9FF"/>
<path d="M24.5906 10.1429C23.8617 9.77866 23.1018 9.45471 22.3308 9.17983L21.8572 10.5088C22.5746 10.7644 23.2818 11.0658 23.96 11.4049L24.5906 10.1429Z" fill="#65C9FF"/>
<path d="M30.4495 14.5604L29.4106 15.5143C29.9251 16.0744 30.4104 16.6717 30.8536 17.2884L32 16.4659C31.524 15.8029 31.0025 15.1616 30.4495 14.5604Z" fill="#65C9FF"/>
<path d="M25.9392 12.5498C26.572 12.9695 27.1866 13.433 27.7648 13.9267L28.6809 12.8538C28.0594 12.3229 27.3992 11.8249 26.7184 11.3739L25.9392 12.5498Z" fill="#65C9FF"/>
<path d="M0 15.1278L1.07243 16.0444C1.56619 15.4667 2.10069 14.9132 2.66048 14.3994L1.70656 13.3603C1.10485 13.9121 0.53088 14.507 0 15.1278Z" fill="#65C9FF"/>
<path d="M11.3372 10.687L12.0459 10.6875L12.9058 9.38368L15.6695 9.40298L14.4329 13.6657C14.4329 13.7901 14.534 13.8914 14.6584 13.8914H15.7955L18.1705 9.48661L20.3505 9.55904C20.9709 9.55904 21.473 9.08384 21.473 8.4976C21.4734 7.91189 20.9705 7.43669 20.351 7.43669L18.1548 7.51008L15.7957 3.13429L14.6581 3.13408C14.5337 3.13429 14.4326 3.23563 14.4326 3.36L15.6607 7.59306L12.8905 7.61706L12.0454 6.33845L11.3367 6.33866C11.2424 6.33866 11.1663 6.41461 11.1663 6.50869V10.5174C11.1668 10.6111 11.2432 10.6876 11.3372 10.687Z" fill="#65C9FF"/>
<path d="M18.2729 16.0657C17.3495 15.8552 16.406 15.7485 15.4669 15.7485C9.5617 15.7485 4.51957 19.7759 3.20565 25.542C2.95381 26.6471 2.85578 27.7628 2.90026 28.8658H4.31221V28.8655C4.26688 27.8678 4.35264 26.8577 4.58048 25.8574C5.04223 25.9771 7.10655 26.5499 7.04095 27.2141C6.9857 27.7711 6.8065 28.4055 6.95562 28.8654H8.25333C8.43157 28.7356 8.60341 28.6737 8.77151 28.8506C8.77599 28.8555 8.78186 28.8605 8.78655 28.8654H19.0341C16.6222 27.3291 16.2809 24.6149 16.2809 24.6149C16.1107 24.5409 16.5976 22.613 15.8393 22.3814C15.0799 22.1501 14.6012 22.3356 13.5256 21.8557C12.4487 21.3758 12.8519 20.7052 13.0288 19.1048C13.1043 18.422 13.2781 17.8107 13.4995 17.3303C14.1393 17.2177 14.7965 17.1589 15.4667 17.1589C16.2999 17.1589 17.139 17.2536 17.9598 17.4406C20.8709 18.1037 23.3495 19.8609 24.939 22.3878C26.1372 24.2933 26.7208 26.4643 26.6519 28.665C26.5598 28.7319 26.4608 28.7987 26.3573 28.8658H28.0541C28.166 26.3332 27.5113 23.8286 26.133 21.6369C24.3435 18.7908 21.5519 16.8125 18.2729 16.0657Z" fill="#65C9FF"/>
</svg>
